<svg width="120" height="17" viewBox="0 0 120 17" fill="none" xmlns="http://www.w3.org/2000/svg">
<path d="M7.2334 0.597656L9.35156 14.8271H5.56348L5.37891 12.2695H4.05176L3.83203 14.8271H0L1.88086 0.597656H7.2334ZM5.27344 9.74707C5.08594 8.13574 4.89844 6.14648 4.71094 3.7793C4.33594 6.49805 4.10156 8.4873 4.00781 9.74707H5.27344Z" fill="#171717"/>
<path d="M13.8912 3.16406L13.8297 4.23633C14.0875 3.80859 14.401 3.48926 14.7701 3.27832C15.1451 3.06152 15.5758 2.95312 16.0621 2.95312C16.6715 2.95312 17.1695 3.09668 17.5562 3.38379C17.943 3.6709 18.192 4.03418 18.3033 4.47363C18.4146 4.90723 18.4703 5.63379 18.4703 6.65332V14.8271H14.9195V6.75C14.9195 5.94727 14.8932 5.45801 14.8404 5.28223C14.7877 5.10645 14.6412 5.01855 14.401 5.01855C14.149 5.01855 13.9908 5.12109 13.9264 5.32617C13.8619 5.52539 13.8297 6.06445 13.8297 6.94336V14.8271H10.2789V3.16406H13.8912Z" fill="#171717"/>
<path d="M28.1779 0.597656V14.8271H24.6271V13.9834C24.2873 14.335 23.9299 14.5986 23.5549 14.7744C23.1799 14.9502 22.7873 15.0381 22.3771 15.0381C21.8264 15.0381 21.3488 14.8945 20.9445 14.6074C20.5402 14.3145 20.2795 13.9775 20.1623 13.5967C20.051 13.2158 19.9953 12.5947 19.9953 11.7334V6.27539C19.9953 5.37891 20.051 4.74316 20.1623 4.36816C20.2795 3.99316 20.5432 3.66504 20.9533 3.38379C21.3635 3.09668 21.8527 2.95312 22.4211 2.95312C22.8605 2.95312 23.2619 3.03223 23.6252 3.19043C23.9943 3.34863 24.3283 3.58594 24.6271 3.90234V0.597656H28.1779ZM24.6271 6.09961C24.6271 5.67188 24.5891 5.38477 24.5129 5.23828C24.4426 5.0918 24.299 5.01855 24.0822 5.01855C23.8713 5.01855 23.7277 5.08594 23.6516 5.2207C23.5812 5.34961 23.5461 5.64258 23.5461 6.09961V11.8125C23.5461 12.2871 23.5812 12.6006 23.6516 12.7529C23.7219 12.8994 23.8566 12.9727 24.0559 12.9727C24.2844 12.9727 24.4367 12.8906 24.5129 12.7266C24.5891 12.5566 24.6271 12.1465 24.6271 11.4961V6.09961Z" fill="#171717"/>
<path d="M33.4031 3.16406L33.2625 4.69336C33.7781 3.59766 34.5252 3.01758 35.5037 2.95312V7.05762C34.8533 7.05762 34.3758 7.14551 34.0711 7.32129C33.7664 7.49707 33.5789 7.74316 33.5086 8.05957C33.4383 8.37012 33.4031 9.09082 33.4031 10.2217V14.8271H29.8523V3.16406H33.4031Z" fill="#171717"/>
<path d="M44.7455 9.20215H40.1488V11.7246C40.1488 12.252 40.1869 12.5918 40.2631 12.7441C40.3393 12.8965 40.4857 12.9727 40.7025 12.9727C40.9721 12.9727 41.1508 12.873 41.2387 12.6738C41.3324 12.4688 41.3793 12.0762 41.3793 11.4961V9.95801H44.7455V10.8193C44.7455 11.54 44.6986 12.0938 44.6049 12.4805C44.517 12.8672 44.3061 13.2803 43.9721 13.7197C43.6381 14.1592 43.2133 14.4902 42.6977 14.7129C42.1879 14.9297 41.5463 15.0381 40.7729 15.0381C40.0229 15.0381 39.3607 14.9297 38.7865 14.7129C38.2123 14.4961 37.7641 14.2002 37.4418 13.8252C37.1254 13.4443 36.9057 13.0283 36.7826 12.5771C36.6596 12.1201 36.598 11.458 36.598 10.5908V7.18945C36.598 6.16992 36.7357 5.36719 37.0111 4.78125C37.2865 4.18945 37.7377 3.73828 38.3646 3.42773C38.9916 3.11133 39.7123 2.95312 40.5268 2.95312C41.5229 2.95312 42.3432 3.14355 42.9877 3.52441C43.6381 3.89941 44.0922 4.40039 44.35 5.02734C44.6137 5.64844 44.7455 6.52441 44.7455 7.65527V9.20215ZM41.1859 7.30371V6.45117C41.1859 5.84766 41.1537 5.45801 41.0893 5.28223C41.0248 5.10645 40.893 5.01855 40.6937 5.01855C40.4477 5.01855 40.2953 5.09473 40.2367 5.24707C40.1781 5.39355 40.1488 5.79492 40.1488 6.45117V7.30371H41.1859ZM43.6732 0L40.7816 2.38184H38.9975L40.5443 0H43.6732Z" fill="#171717"/>
<path d="M58.4127 0.597656V10.1074C58.4127 11.1855 58.3775 11.9443 58.3072 12.3838C58.2369 12.8174 58.0289 13.2656 57.6832 13.7285C57.3375 14.1855 56.8805 14.5342 56.3121 14.7744C55.7496 15.0088 55.0846 15.126 54.317 15.126C53.4674 15.126 52.7174 14.9854 52.067 14.7041C51.4166 14.4229 50.9303 14.0566 50.608 13.6055C50.2857 13.1543 50.0953 12.6797 50.0367 12.1816C49.9781 11.6777 49.9488 10.623 49.9488 9.01758V0.597656H53.649V11.2676C53.649 11.8887 53.6813 12.2871 53.7457 12.4629C53.816 12.6328 53.9537 12.7178 54.1588 12.7178C54.3932 12.7178 54.5426 12.624 54.607 12.4365C54.6773 12.2432 54.7125 11.792 54.7125 11.083V0.597656H58.4127Z" fill="#171717"/>
<path d="M63.6906 0.597656V3.96387C63.9836 3.62402 64.3088 3.37207 64.6662 3.20801C65.0295 3.03809 65.4221 2.95312 65.8439 2.95312C66.3303 2.95312 66.7522 3.0293 67.1096 3.18164C67.467 3.33398 67.7395 3.54785 67.927 3.82324C68.1145 4.09863 68.2258 4.36816 68.2609 4.63184C68.302 4.89551 68.3225 5.45801 68.3225 6.31934V11.5752C68.3225 12.4307 68.2639 13.0693 68.1467 13.4912C68.0354 13.9072 67.7688 14.2705 67.3469 14.5811C66.925 14.8857 66.424 15.0381 65.8439 15.0381C65.4279 15.0381 65.0383 14.9473 64.675 14.7656C64.3176 14.584 63.9895 14.3115 63.6906 13.9482L63.4621 14.8271H60.1398V0.597656H63.6906ZM64.7717 6.47754C64.7717 5.87402 64.7336 5.48145 64.6574 5.2998C64.5813 5.1123 64.4318 5.01855 64.2092 5.01855C63.9924 5.01855 63.8518 5.10059 63.7873 5.26465C63.7229 5.42285 63.6906 5.82715 63.6906 6.47754V11.5049C63.6906 12.1318 63.7258 12.5332 63.7961 12.709C63.8723 12.8848 64.0188 12.9727 64.2355 12.9727C64.4582 12.9727 64.6018 12.8818 64.6662 12.7002C64.7365 12.5186 64.7717 12.082 64.7717 11.3906V6.47754Z" fill="#171717"/>
<path d="M77.9334 9.20215H73.3367V11.7246C73.3367 12.252 73.3748 12.5918 73.451 12.7441C73.5271 12.8965 73.6736 12.9727 73.8904 12.9727C74.16 12.9727 74.3387 12.873 74.4266 12.6738C74.5203 12.4688 74.5672 12.0762 74.5672 11.4961V9.95801H77.9334V10.8193C77.9334 11.54 77.8865 12.0938 77.7928 12.4805C77.7049 12.8672 77.4939 13.2803 77.16 13.7197C76.826 14.1592 76.4012 14.4902 75.8855 14.7129C75.3758 14.9297 74.7342 15.0381 73.9607 15.0381C73.2107 15.0381 72.5486 14.9297 71.9744 14.7129C71.4002 14.4961 70.952 14.2002 70.6297 13.8252C70.3133 13.4443 70.0936 13.0283 69.9705 12.5771C69.8475 12.1201 69.7859 11.458 69.7859 10.5908V7.18945C69.7859 6.16992 69.9236 5.36719 70.199 4.78125C70.4744 4.18945 70.9256 3.73828 71.5525 3.42773C72.1795 3.11133 72.9002 2.95312 73.7146 2.95312C74.7107 2.95312 75.5311 3.14355 76.1756 3.52441C76.826 3.89941 77.2801 4.40039 77.5379 5.02734C77.8016 5.64844 77.9334 6.52441 77.9334 7.65527V9.20215ZM74.3738 7.30371V6.45117C74.3738 5.84766 74.3416 5.45801 74.2771 5.28223C74.2127 5.10645 74.0809 5.01855 73.8816 5.01855C73.6355 5.01855 73.4832 5.09473 73.4246 5.24707C73.366 5.39355 73.3367 5.79492 73.3367 6.45117V7.30371H74.3738Z" fill="#171717"/>
<path d="M86.9379 3.16406L85.9184 11.6016C85.7602 12.9375 85.6254 13.8486 85.5141 14.335C85.4086 14.8213 85.2299 15.2227 84.9779 15.5391C84.726 15.8555 84.3744 16.0869 83.9232 16.2334C83.4779 16.3857 82.7631 16.4619 81.7787 16.4619H79.6254V14.5986C80.1762 14.5986 80.5307 14.5723 80.6889 14.5195C80.8471 14.4609 80.9262 14.335 80.9262 14.1416C80.9262 14.0479 80.8529 13.6406 80.7064 12.9199L78.7641 3.16406H81.9896L83.1498 11.0303L83.7123 3.16406H86.9379Z" fill="#171717"/>
<path d="M95.6787 3.16406L94.0176 14.8271H89.3857L87.6016 3.16406H90.7744L91.7676 11.6719C91.8438 11.0508 91.9727 9.52734 92.1543 7.10156C92.2598 5.74805 92.377 4.43555 92.5059 3.16406H95.6787Z" fill="#171717"/>
<path d="M104.648 7.25977V10.1162C104.648 11.165 104.595 11.9355 104.49 12.4277C104.384 12.9141 104.159 13.3711 103.813 13.7988C103.467 14.2207 103.022 14.5342 102.477 14.7393C101.938 14.9385 101.317 15.0381 100.614 15.0381C99.8287 15.0381 99.1637 14.9531 98.6188 14.7832C98.0738 14.6074 97.649 14.3467 97.3443 14.001C97.0455 13.6494 96.8316 13.2275 96.7027 12.7354C96.5738 12.2373 96.5094 11.4932 96.5094 10.5029V7.51465C96.5094 6.43066 96.6266 5.58398 96.8609 4.97461C97.0953 4.36523 97.5172 3.87598 98.1266 3.50684C98.7359 3.1377 99.5152 2.95312 100.464 2.95312C101.261 2.95312 101.944 3.07324 102.512 3.31348C103.087 3.54785 103.529 3.85547 103.839 4.23633C104.15 4.61719 104.361 5.00977 104.472 5.41406C104.589 5.81836 104.648 6.43359 104.648 7.25977ZM101.097 6.38086C101.097 5.7832 101.065 5.4082 101.001 5.25586C100.936 5.09766 100.798 5.01855 100.588 5.01855C100.377 5.01855 100.236 5.09766 100.166 5.25586C100.095 5.4082 100.06 5.7832 100.06 6.38086V11.6455C100.06 12.1963 100.095 12.5566 100.166 12.7266C100.236 12.8906 100.374 12.9727 100.579 12.9727C100.79 12.9727 100.927 12.8965 100.992 12.7441C101.062 12.5918 101.097 12.2637 101.097 11.7598V6.38086Z" fill="#171717"/>
<path d="M109.882 0.597656V14.8271H106.226V0.597656H109.882Z" fill="#171717"/>
<path d="M119.212 3.16406L117.77 7.81348L119.642 14.8271H116.223L115.116 9.74707V14.8271H111.565V0.597656H115.116V6.57422L116.223 3.16406H119.212Z" fill="#171717"/>
</svg>
