<svg width="129" height="16" viewBox="0 0 129 16" fill="none" xmlns="http://www.w3.org/2000/svg">
<path d="M7.2334 0L9.35156 14.2295H5.56348L5.37891 11.6719H4.05176L3.83203 14.2295H0L1.88086 0H7.2334ZM5.27344 9.14941C5.08594 7.53809 4.89844 5.54883 4.71094 3.18164C4.33594 5.90039 4.10156 7.88965 4.00781 9.14941H5.27344Z" fill="#171717"/>
<path d="M13.8912 2.56641L13.8297 3.63867C14.0875 3.21094 14.401 2.8916 14.7701 2.68066C15.1451 2.46387 15.5758 2.35547 16.0621 2.35547C16.6715 2.35547 17.1695 2.49902 17.5562 2.78613C17.943 3.07324 18.192 3.43652 18.3033 3.87598C18.4146 4.30957 18.4703 5.03613 18.4703 6.05566V14.2295H14.9195V6.15234C14.9195 5.34961 14.8932 4.86035 14.8404 4.68457C14.7877 4.50879 14.6412 4.4209 14.401 4.4209C14.149 4.4209 13.9908 4.52344 13.9264 4.72852C13.8619 4.92773 13.8297 5.4668 13.8297 6.3457V14.2295H10.2789V2.56641H13.8912Z" fill="#171717"/>
<path d="M28.1779 0V14.2295H24.6271V13.3857C24.2873 13.7373 23.9299 14.001 23.5549 14.1768C23.1799 14.3525 22.7873 14.4404 22.3771 14.4404C21.8264 14.4404 21.3488 14.2969 20.9445 14.0098C20.5402 13.7168 20.2795 13.3799 20.1623 12.999C20.051 12.6182 19.9953 11.9971 19.9953 11.1357V5.67773C19.9953 4.78125 20.051 4.14551 20.1623 3.77051C20.2795 3.39551 20.5432 3.06738 20.9533 2.78613C21.3635 2.49902 21.8527 2.35547 22.4211 2.35547C22.8605 2.35547 23.2619 2.43457 23.6252 2.59277C23.9943 2.75098 24.3283 2.98828 24.6271 3.30469V0H28.1779ZM24.6271 5.50195C24.6271 5.07422 24.5891 4.78711 24.5129 4.64062C24.4426 4.49414 24.299 4.4209 24.0822 4.4209C23.8713 4.4209 23.7277 4.48828 23.6516 4.62305C23.5812 4.75195 23.5461 5.04492 23.5461 5.50195V11.2148C23.5461 11.6895 23.5812 12.0029 23.6516 12.1553C23.7219 12.3018 23.8566 12.375 24.0559 12.375C24.2844 12.375 24.4367 12.293 24.5129 12.1289C24.5891 11.959 24.6271 11.5488 24.6271 10.8984V5.50195Z" fill="#171717"/>
<path d="M33.4031 2.56641L33.2625 4.0957C33.7781 3 34.5252 2.41992 35.5037 2.35547V6.45996C34.8533 6.45996 34.3758 6.54785 34.0711 6.72363C33.7664 6.89941 33.5789 7.14551 33.5086 7.46191C33.4383 7.77246 33.4031 8.49316 33.4031 9.62402V14.2295H29.8523V2.56641H33.4031Z" fill="#171717"/>
<path d="M44.7455 8.60449H40.1488V11.127C40.1488 11.6543 40.1869 11.9941 40.2631 12.1465C40.3393 12.2988 40.4857 12.375 40.7025 12.375C40.9721 12.375 41.1508 12.2754 41.2387 12.0762C41.3324 11.8711 41.3793 11.4785 41.3793 10.8984V9.36035H44.7455V10.2217C44.7455 10.9424 44.6986 11.4961 44.6049 11.8828C44.517 12.2695 44.3061 12.6826 43.9721 13.1221C43.6381 13.5615 43.2133 13.8926 42.6977 14.1152C42.1879 14.332 41.5463 14.4404 40.7729 14.4404C40.0229 14.4404 39.3607 14.332 38.7865 14.1152C38.2123 13.8984 37.7641 13.6025 37.4418 13.2275C37.1254 12.8467 36.9057 12.4307 36.7826 11.9795C36.6596 11.5225 36.598 10.8604 36.598 9.99316V6.5918C36.598 5.57227 36.7357 4.76953 37.0111 4.18359C37.2865 3.5918 37.7377 3.14062 38.3646 2.83008C38.9916 2.51367 39.7123 2.35547 40.5268 2.35547C41.5229 2.35547 42.3432 2.5459 42.9877 2.92676C43.6381 3.30176 44.0922 3.80273 44.35 4.42969C44.6137 5.05078 44.7455 5.92676 44.7455 7.05762V8.60449ZM41.1859 6.70605V5.85352C41.1859 5.25 41.1537 4.86035 41.0893 4.68457C41.0248 4.50879 40.893 4.4209 40.6937 4.4209C40.4477 4.4209 40.2953 4.49707 40.2367 4.64941C40.1781 4.7959 40.1488 5.19727 40.1488 5.85352V6.70605H41.1859Z" fill="#171717"/>
<path d="M53.75 2.56641L52.7305 11.0039C52.5723 12.3398 52.4375 13.251 52.3262 13.7373C52.2207 14.2236 52.042 14.625 51.79 14.9414C51.5381 15.2578 51.1865 15.4893 50.7354 15.6357C50.29 15.7881 49.5752 15.8643 48.5908 15.8643H46.4375V14.001C46.9883 14.001 47.3428 13.9746 47.501 13.9219C47.6592 13.8633 47.7383 13.7373 47.7383 13.5439C47.7383 13.4502 47.665 13.043 47.5186 12.3223L45.5762 2.56641H48.8018L49.9619 10.4326L50.5244 2.56641H53.75Z" fill="#171717"/>
<path d="M66.8811 0V9.50977C66.8811 10.5879 66.8459 11.3467 66.7756 11.7861C66.7053 12.2197 66.4973 12.668 66.1516 13.1309C65.8059 13.5879 65.3488 13.9365 64.7805 14.1768C64.218 14.4111 63.5529 14.5283 62.7854 14.5283C61.9357 14.5283 61.1857 14.3877 60.5354 14.1064C59.885 13.8252 59.3986 13.459 59.0764 13.0078C58.7541 12.5566 58.5637 12.082 58.5051 11.584C58.4465 11.0801 58.4172 10.0254 58.4172 8.41992V0H62.1174V10.6699C62.1174 11.291 62.1496 11.6895 62.2141 11.8652C62.2844 12.0352 62.4221 12.1201 62.6271 12.1201C62.8615 12.1201 63.0109 12.0264 63.0754 11.8389C63.1457 11.6455 63.1809 11.1943 63.1809 10.4854V0H66.8811Z" fill="#171717"/>
<path d="M72.159 0V3.36621C72.452 3.02637 72.7771 2.77441 73.1346 2.61035C73.4978 2.44043 73.8904 2.35547 74.3123 2.35547C74.7986 2.35547 75.2205 2.43164 75.5779 2.58398C75.9353 2.73633 76.2078 2.9502 76.3953 3.22559C76.5828 3.50098 76.6941 3.77051 76.7293 4.03418C76.7703 4.29785 76.7908 4.86035 76.7908 5.72168V10.9775C76.7908 11.833 76.7322 12.4717 76.615 12.8936C76.5037 13.3096 76.2371 13.6729 75.8152 13.9834C75.3934 14.2881 74.8924 14.4404 74.3123 14.4404C73.8963 14.4404 73.5066 14.3496 73.1434 14.168C72.7859 13.9863 72.4578 13.7139 72.159 13.3506L71.9305 14.2295H68.6082V0H72.159ZM73.24 5.87988C73.24 5.27637 73.202 4.88379 73.1258 4.70215C73.0496 4.51465 72.9002 4.4209 72.6775 4.4209C72.4607 4.4209 72.3201 4.50293 72.2557 4.66699C72.1912 4.8252 72.159 5.22949 72.159 5.87988V10.9072C72.159 11.5342 72.1941 11.9355 72.2645 12.1113C72.3406 12.2871 72.4871 12.375 72.7039 12.375C72.9266 12.375 73.0701 12.2842 73.1346 12.1025C73.2049 11.9209 73.24 11.4844 73.24 10.793V5.87988Z" fill="#171717"/>
<path d="M86.4018 8.60449H81.8051V11.127C81.8051 11.6543 81.8432 11.9941 81.9193 12.1465C81.9955 12.2988 82.142 12.375 82.3588 12.375C82.6283 12.375 82.807 12.2754 82.8949 12.0762C82.9887 11.8711 83.0355 11.4785 83.0355 10.8984V9.36035H86.4018V10.2217C86.4018 10.9424 86.3549 11.4961 86.2611 11.8828C86.1732 12.2695 85.9623 12.6826 85.6283 13.1221C85.2943 13.5615 84.8695 13.8926 84.3539 14.1152C83.8441 14.332 83.2025 14.4404 82.4291 14.4404C81.6791 14.4404 81.017 14.332 80.4428 14.1152C79.8686 13.8984 79.4203 13.6025 79.098 13.2275C78.7816 12.8467 78.5619 12.4307 78.4389 11.9795C78.3158 11.5225 78.2543 10.8604 78.2543 9.99316V6.5918C78.2543 5.57227 78.392 4.76953 78.6674 4.18359C78.9428 3.5918 79.3939 3.14062 80.0209 2.83008C80.6479 2.51367 81.3686 2.35547 82.183 2.35547C83.1791 2.35547 83.9994 2.5459 84.6439 2.92676C85.2943 3.30176 85.7484 3.80273 86.0062 4.42969C86.2699 5.05078 86.4018 5.92676 86.4018 7.05762V8.60449ZM82.8422 6.70605V5.85352C82.8422 5.25 82.81 4.86035 82.7455 4.68457C82.6811 4.50879 82.5492 4.4209 82.35 4.4209C82.1039 4.4209 81.9516 4.49707 81.893 4.64941C81.8344 4.7959 81.8051 5.19727 81.8051 5.85352V6.70605H82.8422Z" fill="#171717"/>
<path d="M95.4062 2.56641L94.3867 11.0039C94.2285 12.3398 94.0938 13.251 93.9824 13.7373C93.877 14.2236 93.6982 14.625 93.4463 14.9414C93.1943 15.2578 92.8428 15.4893 92.3916 15.6357C91.9463 15.7881 91.2314 15.8643 90.2471 15.8643H88.0938V14.001C88.6445 14.001 88.999 13.9746 89.1572 13.9219C89.3154 13.8633 89.3945 13.7373 89.3945 13.5439C89.3945 13.4502 89.3213 13.043 89.1748 12.3223L87.2324 2.56641H90.458L91.6182 10.4326L92.1807 2.56641H95.4062Z" fill="#171717"/>
<path d="M104.147 2.56641L102.486 14.2295H97.8541L96.0699 2.56641H99.2428L100.236 11.0742C100.312 10.4531 100.441 8.92969 100.623 6.50391C100.728 5.15039 100.845 3.83789 100.974 2.56641H104.147Z" fill="#171717"/>
<path d="M113.116 6.66211V9.51855C113.116 10.5674 113.064 11.3379 112.958 11.8301C112.853 12.3164 112.627 12.7734 112.281 13.2012C111.936 13.623 111.49 13.9365 110.946 14.1416C110.406 14.3408 109.785 14.4404 109.082 14.4404C108.297 14.4404 107.632 14.3555 107.087 14.1855C106.542 14.0098 106.117 13.749 105.813 13.4033C105.514 13.0518 105.3 12.6299 105.171 12.1377C105.042 11.6396 104.978 10.8955 104.978 9.90527V6.91699C104.978 5.83301 105.095 4.98633 105.329 4.37695C105.564 3.76758 105.986 3.27832 106.595 2.90918C107.204 2.54004 107.984 2.35547 108.933 2.35547C109.73 2.35547 110.412 2.47559 110.981 2.71582C111.555 2.9502 111.997 3.25781 112.308 3.63867C112.618 4.01953 112.829 4.41211 112.941 4.81641C113.058 5.2207 113.116 5.83594 113.116 6.66211ZM109.566 5.7832C109.566 5.18555 109.533 4.81055 109.469 4.6582C109.404 4.5 109.267 4.4209 109.056 4.4209C108.845 4.4209 108.704 4.5 108.634 4.6582C108.564 4.81055 108.529 5.18555 108.529 5.7832V11.0479C108.529 11.5986 108.564 11.959 108.634 12.1289C108.704 12.293 108.842 12.375 109.047 12.375C109.258 12.375 109.396 12.2988 109.46 12.1465C109.53 11.9941 109.566 11.666 109.566 11.1621V5.7832Z" fill="#171717"/>
<path d="M118.35 0V14.2295H114.694V0H118.35Z" fill="#171717"/>
<path d="M127.68 2.56641L126.239 7.21582L128.111 14.2295H124.692L123.584 9.14941V14.2295H120.034V0H123.584V5.97656L124.692 2.56641H127.68Z" fill="#171717"/>
</svg>
