<svg width="36" height="24" viewBox="0 0 36 24" fill="none" xmlns="http://www.w3.org/2000/svg">
<path d="M0 4H3.00742C5.01236 4 6.36806 4.07737 7.0745 4.23212C7.78766 4.38686 8.36627 4.78381 8.81032 5.42297C9.2611 6.05541 9.48649 7.06797 9.48649 8.46067C9.48649 9.73226 9.32838 10.5867 9.01216 11.024C8.69595 11.4614 8.0736 11.7237 7.14514 11.8112C7.98614 12.0198 8.55129 12.299 8.8406 12.6488C9.1299 12.9987 9.30819 13.3216 9.37547 13.6177C9.44948 13.907 9.48649 14.711 9.48649 16.0297V20.339H5.54051V14.9095C5.54051 14.0348 5.46987 13.4932 5.32858 13.2846C5.19402 13.0761 4.83407 12.9718 4.24873 12.9718V20.339H0V4ZM4.24873 6.79549V10.4286C4.72642 10.4286 5.05946 10.3647 5.24784 10.2369C5.44296 10.1023 5.54051 9.67507 5.54051 8.95517V8.05699C5.54051 7.53893 5.44632 7.19917 5.25794 7.03769C5.07628 6.87622 4.73988 6.79549 4.24873 6.79549Z" fill="white"/>
<path d="M19.8413 13.8801H14.5632V16.7765C14.5632 17.382 14.6069 17.7722 14.6944 17.9472C14.7818 18.1221 14.95 18.2095 15.199 18.2095C15.5085 18.2095 15.7137 18.0952 15.8146 17.8664C15.9222 17.6309 15.976 17.1802 15.976 16.5141V14.748H19.8413V15.737C19.8413 16.5645 19.7875 17.2003 19.6798 17.6444C19.5789 18.0884 19.3367 18.5628 18.9532 19.0674C18.5697 19.572 18.0819 19.9521 17.4899 20.2078C16.9045 20.4567 16.1678 20.5812 15.2797 20.5812C14.4185 20.5812 13.6583 20.4567 12.9989 20.2078C12.3396 19.9588 11.8249 19.6191 11.4548 19.1885C11.0915 18.7511 10.8392 18.2735 10.6979 17.7554C10.5566 17.2306 10.486 16.4704 10.486 15.4746V11.569C10.486 10.3983 10.6441 9.4766 10.9603 8.80379C11.2765 8.12427 11.7946 7.60621 12.5145 7.24963C13.2344 6.88631 14.0619 6.70466 14.9971 6.70466C16.1409 6.70466 17.0828 6.92332 17.8229 7.36064C18.5697 7.79123 19.0911 8.36647 19.3871 9.08637C19.6899 9.79954 19.8413 10.8054 19.8413 12.1039V13.8801ZM15.754 11.7002V10.7213C15.754 10.0283 15.717 9.58088 15.643 9.37904C15.569 9.1772 15.4176 9.07628 15.1889 9.07628C14.9063 9.07628 14.7314 9.16374 14.6641 9.33867C14.5968 9.50687 14.5632 9.96774 14.5632 10.7213V11.7002H15.754Z" fill="white"/>
<path d="M30.0043 13.8801H24.7262V16.7765C24.7262 17.382 24.77 17.7722 24.8574 17.9472C24.9449 18.1221 25.1131 18.2095 25.362 18.2095C25.6715 18.2095 25.8767 18.0952 25.9776 17.8664C26.0853 17.6309 26.1391 17.1802 26.1391 16.5141V14.748H30.0043V15.737C30.0043 16.5645 29.9505 17.2003 29.8429 17.6444C29.7419 18.0884 29.4997 18.5628 29.1162 19.0674C28.7327 19.572 28.245 19.9521 27.6529 20.2078C27.0676 20.4567 26.3309 20.5812 25.4428 20.5812C24.5816 20.5812 23.8213 20.4567 23.162 20.2078C22.5026 19.9588 21.9879 19.6191 21.6179 19.1885C21.2546 18.7511 21.0023 18.2735 20.861 17.7554C20.7197 17.2306 20.6491 16.4704 20.6491 15.4746V11.569C20.6491 10.3983 20.8072 9.4766 21.1234 8.80379C21.4396 8.12427 21.9576 7.60621 22.6775 7.24963C23.3974 6.88631 24.225 6.70466 25.1602 6.70466C26.3039 6.70466 27.2459 6.92332 27.9859 7.36064C28.7327 7.79123 29.2542 8.36647 29.5502 9.08637C29.853 9.79954 30.0043 10.8054 30.0043 12.1039V13.8801ZM25.9171 11.7002V10.7213C25.9171 10.0283 25.8801 9.58088 25.8061 9.37904C25.7321 9.1772 25.5807 9.07628 25.3519 9.07628C25.0694 9.07628 24.8944 9.16374 24.8271 9.33867C24.7599 9.50687 24.7262 9.96774 24.7262 10.7213V11.7002H25.9171Z" fill="white"/>
<path d="M35.1315 4V20.339H30.9332V4H35.1315Z" fill="white"/>
</svg>
